<svg id="Layer_1" data-name="Layer 1" xmlns="http://www.w3.org/2000/svg" viewBox="0 0 500 500"><defs><style>.cls-1,.cls-2{fill:none;stroke:#231f20;stroke-miterlimit:10;stroke-width:16px;}.cls-2{stroke-linecap:round;}</style></defs><path class="cls-1" d="M70.34,102.76H375.59a76.8,76.8,0,0,1,42.17,12.14c14.94,9.8,29.57,27,28.31,56.85-1.37,32.06-16.93,48.25-31.22,56.38a65.05,65.05,0,0,1-31.53,8.16l-313,3.51s-.14-5.34,1.22-5.1c11.73-12.93,63.85-69.8-1-124.69C69.89,109.41,70.33,103.89,70.34,102.76Z"/><path class="cls-1" d="M70,101.89H375.22A76.81,76.81,0,0,1,417.39,114c14.94,9.8,29.57,27,28.31,56.84-1.37,32.07-16.93,48.26-31.22,56.39A65.16,65.16,0,0,1,383,235.43L70,238.94s-.14-5.34,1.22-5.1c11.73-12.94,63.85-69.81-1-124.7C69.52,108.54,70,103,70,101.89Z"/><path class="cls-1" d="M297.8,102.76c14.41,9.74,42.91,33.62,39.44,68.51-2.17,34.53-21.1,54.64-38.56,65.95"/><line class="cls-2" x1="279.26" y1="139.19" x2="94.95" y2="139.19"/><line class="cls-2" x1="290.02" y1="171.27" x2="102.45" y2="171.27"/><line class="cls-2" x1="277.2" y1="204.78" x2="93.11" y2="204.78"/><path class="cls-1" d="M70.16,241.35H375.4a76.79,76.79,0,0,1,42.17,12.15c14.95,9.8,29.58,27,28.31,56.84-1.36,32.07-16.92,48.26-31.21,56.39a65.22,65.22,0,0,1-31.53,8.16l-313,3.51s-.14-3.6,1.22-5.1c11.72-12.94,63.84-69.81-1-124.7C69.7,248,70.15,242.49,70.16,241.35Z"/><path class="cls-1" d="M297.62,241.35c14.41,9.74,42.91,33.63,39.44,68.52-2.17,34.52-21.11,54.64-38.57,65.95"/><line class="cls-2" x1="279.07" y1="277.78" x2="94.76" y2="277.78"/><line class="cls-2" x1="289.84" y1="309.87" x2="102.27" y2="309.87"/><line class="cls-2" x1="277.02" y1="343.37" x2="92.92" y2="343.37"/></svg>