<svg width="121" height="49" viewBox="0 0 121 49" fill="none" xmlns="http://www.w3.org/2000/svg">
<rect x="2" y="2" width="117" height="45" rx="22.5" stroke="url(#paint0_linear_304_5)" stroke-opacity="0.9" stroke-width="4"/>
<path d="M35.2812 30.1406C35.2812 29.6719 35.2083 29.2552 35.0625 28.8906C34.9271 28.526 34.6823 28.1927 34.3281 27.8906C33.974 27.5885 33.474 27.2969 32.8281 27.0156C32.1927 26.724 31.3802 26.4271 30.3906 26.125C29.3073 25.7917 28.3073 25.4219 27.3906 25.0156C26.4844 24.599 25.6927 24.1198 25.0156 23.5781C24.3385 23.026 23.8125 22.3958 23.4375 21.6875C23.0625 20.9688 22.875 20.1406 22.875 19.2031C22.875 18.276 23.0677 17.4323 23.4531 16.6719C23.849 15.9115 24.4062 15.2552 25.125 14.7031C25.8542 14.1406 26.7135 13.7083 27.7031 13.4062C28.6927 13.0938 29.7865 12.9375 30.9844 12.9375C32.6719 12.9375 34.125 13.25 35.3438 13.875C36.5729 14.5 37.5156 15.3385 38.1719 16.3906C38.8385 17.4427 39.1719 18.6042 39.1719 19.875H35.2812C35.2812 19.125 35.1198 18.4635 34.7969 17.8906C34.4844 17.3073 34.0052 16.849 33.3594 16.5156C32.724 16.1823 31.9167 16.0156 30.9375 16.0156C30.0104 16.0156 29.2396 16.1562 28.625 16.4375C28.0104 16.7188 27.5521 17.099 27.25 17.5781C26.9479 18.0573 26.7969 18.599 26.7969 19.2031C26.7969 19.6302 26.8958 20.0208 27.0938 20.375C27.2917 20.7188 27.5938 21.0417 28 21.3438C28.4062 21.6354 28.9167 21.9115 29.5312 22.1719C30.1458 22.4323 30.8698 22.6823 31.7031 22.9219C32.9635 23.2969 34.0625 23.7135 35 24.1719C35.9375 24.6198 36.7188 25.1302 37.3438 25.7031C37.9688 26.276 38.4375 26.9271 38.75 27.6562C39.0625 28.375 39.2188 29.1927 39.2188 30.1094C39.2188 31.0677 39.026 31.9323 38.6406 32.7031C38.2552 33.4635 37.7031 34.1146 36.9844 34.6562C36.276 35.1875 35.4219 35.599 34.4219 35.8906C33.4323 36.1719 32.3281 36.3125 31.1094 36.3125C30.0156 36.3125 28.9375 36.1667 27.875 35.875C26.8229 35.5833 25.8646 35.1406 25 34.5469C24.1354 33.9427 23.4479 33.1927 22.9375 32.2969C22.4271 31.3906 22.1719 30.3333 22.1719 29.125H26.0938C26.0938 29.8646 26.2188 30.4948 26.4688 31.0156C26.7292 31.5365 27.0885 31.9635 27.5469 32.2969C28.0052 32.6198 28.5365 32.8594 29.1406 33.0156C29.7552 33.1719 30.4115 33.25 31.1094 33.25C32.026 33.25 32.7917 33.1198 33.4062 32.8594C34.0312 32.599 34.5 32.2344 34.8125 31.7656C35.125 31.2969 35.2812 30.7552 35.2812 30.1406ZM49.7656 36.3125C48.5156 36.3125 47.3854 36.1094 46.375 35.7031C45.375 35.2865 44.5208 34.7083 43.8125 33.9688C43.1146 33.2292 42.5781 32.3594 42.2031 31.3594C41.8281 30.3594 41.6406 29.2812 41.6406 28.125V27.5C41.6406 26.1771 41.8333 24.9792 42.2188 23.9062C42.6042 22.8333 43.1406 21.9167 43.8281 21.1562C44.5156 20.3854 45.3281 19.7969 46.2656 19.3906C47.2031 18.9844 48.2188 18.7812 49.3125 18.7812C50.5208 18.7812 51.5781 18.9844 52.4844 19.3906C53.3906 19.7969 54.1406 20.3698 54.7344 21.1094C55.3385 21.8385 55.7865 22.7083 56.0781 23.7188C56.3802 24.7292 56.5312 25.8438 56.5312 27.0625V28.6719H43.4688V25.9688H52.8125V25.6719C52.7917 24.9948 52.6562 24.3594 52.4062 23.7656C52.1667 23.1719 51.7969 22.6927 51.2969 22.3281C50.7969 21.9635 50.1302 21.7812 49.2969 21.7812C48.6719 21.7812 48.1146 21.9167 47.625 22.1875C47.1458 22.4479 46.7448 22.8281 46.4219 23.3281C46.099 23.8281 45.849 24.4323 45.6719 25.1406C45.5052 25.8385 45.4219 26.625 45.4219 27.5V28.125C45.4219 28.8646 45.5208 29.5521 45.7188 30.1875C45.9271 30.8125 46.2292 31.3594 46.625 31.8281C47.0208 32.2969 47.5 32.6667 48.0625 32.9375C48.625 33.1979 49.2656 33.3281 49.9844 33.3281C50.8906 33.3281 51.6979 33.1458 52.4062 32.7812C53.1146 32.4167 53.7292 31.901 54.25 31.2344L56.2344 33.1562C55.8698 33.6875 55.3958 34.1979 54.8125 34.6875C54.2292 35.1667 53.5156 35.5573 52.6719 35.8594C51.8385 36.1615 50.8698 36.3125 49.7656 36.3125ZM63.5 12V36H59.7188V12H63.5ZM71.6562 12V36H67.875V12H71.6562ZM98.4375 23.5312V26.9219H82.8438V23.5312H98.4375ZM92.4688 17.1562V33.7188H88.8281V17.1562H92.4688Z" fill="white" fill-opacity="0.9"/>
<defs>
<linearGradient id="paint0_linear_304_5" x1="-4.55822" y1="27" x2="140.075" y2="24.9392" gradientUnits="userSpaceOnUse">
<stop offset="0.0520833" stop-color="#FF0000"/>
<stop offset="0.484375" stop-color="#001AFF"/>
<stop offset="0.854167" stop-color="#FF00B9"/>
</linearGradient>
</defs>
</svg>
